<svg xmlns="http://www.w3.org/2000/svg" xml:space="preserve" width="175px" height="84px" style="shape-rendering:geometricPrecision; text-rendering:geometricPrecision; image-rendering:optimizeQuality; fill-rule:evenodd; clip-rule:evenodd"
viewBox="0 0 34.2052 16.4252"
 xmlns:xlink="http://www.w3.org/1999/xlink"
 enable-background="new 0 0 130 63"
 version="1.1">
 <defs>
  <style type="text/css">
    .fil0 {fill:#007AC2}
    .fil1 {fill:white}
    .fil2 {fill:#007AC2;fill-rule:nonzero}
    .fil3 {fill:white;fill-rule:nonzero}
  </style>
 </defs>
 <g id="Layer_x0020_1">
  <metadata id="CorelCorpID_0Corel-Layer"/>
  <polygon class="fil0" points="-0.0081,-0.001 34.1972,-0.001 34.1972,16.4243 -0.0081,16.4243 "/>
  <path id="Shape" class="fil1" d="M24.798 5.1145l-1.7878 0 0 5.1339 1.1379 0 0 -1.7456 0.6499 0c0.7964,0 0.8452,-0.5574 0.8452,-0.9168l0 -1.5546c0,-0.3597 -0.0487,-0.9169 -0.8452,-0.9169z"/>
  <path id="Shape_0" class="fil1" d="M28.1791 5.1145l-0.9426 0c-0.7963,0 -0.8453,0.5573 -0.8453,0.9169l0 3.3002c0,0.3593 0.049,0.9168 0.8453,0.9168l0.9426 0c0.7963,0 0.845,-0.5575 0.845,-0.9168l0 -3.3002c0,-0.3597 -0.0487,-0.9169 -0.845,-0.9169z"/>
  <polygon id="Shape_1" class="fil1" points="13.3751,5.1145 12.7818,10.2484 13.8953,10.2484 14.0009,8.8842 14.5372,8.8842 14.6429,10.2484 15.7563,10.2484 15.163,5.1145 "/>
  <path id="Shape_2" class="fil1" d="M5.7115 12.4955c0.0022,-0.0025 0.0042,-0.005 0.0066,-0.0075 0.624,-0.6239 1.636,-0.6239 2.2602,0 0.624,0.6241 0.624,1.6363 0,2.2604 -0.0026,0.0025 -0.0055,0.0046 -0.0082,0.0073 0,0.0002 0,0.0004 -0.0001,0.0006 -0.003,0.0029 -0.0063,0.0053 -0.0095,0.0082 -0.6222,0.6182 -1.4358,0.9274 -2.2491,0.9274 -0.817,0 -1.6341,-0.3117 -2.2573,-0.9348 -1.0984,-1.0985 -1.2286,-2.7977 -0.3913,-4.0391 0.113,-0.1676 0.2432,-0.3273 0.3913,-0.4754 0.6234,-0.6231 1.4403,-0.9341 2.2573,-0.9341l0 -4.2725c-3.1396,0 -5.6846,2.545 -5.6846,5.682 0,3.1392 2.545,5.6843 5.6846,5.6843 1.6368,0 3.1114,-0.6922 4.1488,-1.7992l0 -3.8851 -4.1488 0 0 1.7775 0.0001 0z"/>
  <path id="Shape_3" class="fil1" d="M6.8729 8.7903c0.2657,0.638 0.6643,1.3206 0.9236,1.6564 0.3799,-0.4937 1.2536,-1.9658 1.5256,-3.8902 0.1518,-1.0695 0.1582,-2.006 -0.1898,-3.5314 -0.3484,-1.5252 -1.2214,-2.7655 -1.3419,-2.9681 -0.1898,0.2846 -0.8865,1.3795 -1.2405,2.595 -0.3863,1.3542 -0.4432,2.5562 -0.3099,3.7401 0.1327,1.1837 0.6329,2.3982 0.6329,2.3982z"/>
  <polygon id="Shape_4" class="fil1" points="32.7301,5.1145 31.9908,8.723 31.2511,5.1145 29.772,5.1145 29.772,10.2484 30.9098,10.2484 30.9098,7.0287 30.9507,7.0287 31.5356,10.2484 32.4458,10.2484 33.0309,7.0287 33.0715,7.0287 33.0715,10.2484 34.2092,10.2484 34.2092,5.1145 "/>
  <path id="Shape_5" class="fil0" d="M27.8867 9.418c0,0.0882 -0.073,0.1688 -0.1787,0.1688 -0.0651,0 -0.1788,-0.0368 -0.1788,-0.1688l0 -3.4983c0,-0.1319 0.1137,-0.1687 0.1788,-0.1687 0.1058,0 0.1787,0.0808 0.1787,0.1687l0 3.4983z"/>
  <path id="Shape_6" class="fil0" d="M24.5055 7.6814c0,0.1613 -0.0893,0.2567 -0.2111,0.2567l-0.1463 0 0 -2.1871 0.1463 0c0.1218,0 0.2111,0.0954 0.2111,0.2567l0 1.6737z"/>
  <polygon id="Shape_7" class="fil1" points="19.6289,10.2483 20.767,10.2483 20.767,5.751 21.1249,5.751 21.1249,10.2483 22.2624,10.2483 22.2624,5.1144 19.6289,5.1144 19.6289,10.2483 "/>
  <path id="Shape_8" class="fil1" d="M18.0355 5.1145l-0.9431 0c-0.7965,0 -0.8453,0.5573 -0.8453,0.9169l0 0.726 1.1376 0 0 -0.8376c0,-0.1318 0.1139,-0.1687 0.1788,-0.1687 0.1058,0 0.1788,0.0809 0.1788,0.1687l0 1.0209c0,0.3153 -0.1138,0.3813 -0.4388,0.3813l-0.4795 0 0 0.5647 0.4632 0c0.4225,0 0.4551,0.1759 0.4551,0.3373l0 1.194c0,0.0882 -0.0731,0.1688 -0.1788,0.1688 -0.0649,0 -0.1788,-0.0368 -0.1788,-0.1688l0 -0.9667 -1.1376 0 0 0.8801c0,0.3594 0.0488,0.9169 0.8453,0.9169l0.9431 0c0.7967,0 0.8454,-0.5575 0.8454,-0.9169l0 -1.0341c0,-0.1833 -0.0081,-0.7114 -0.772,-0.6966l0 -0.0515c0.3412,0.0147 0.772,-0.1394 0.772,-0.6967l0 -0.8214c-0.0001,-0.3594 -0.0487,-0.9166 -0.8454,-0.9166z"/>
  <polygon id="Shape_9" class="fil0" points="14.0414,8.3194 14.2365,5.7509 14.3014,5.7509 14.4964,8.3194 "/>
  <polygon id="Shape_10" class="fil1" points="10.5856,10.2483 11.7232,10.2483 11.7232,5.751 12.7553,5.751 12.7553,5.1144 10.5856,5.1144 "/>
  <path id="Shape_11" class="fil0" d="M6.5411 4.9348c0.0306,-0.7901 0.2151,-1.6013 0.3165,-1.9746 0.3858,-1.2468 0.8229,-2.0439 0.905,-2.1704 0.0822,0.1266 0.6327,1.1076 0.918,2.1392 0.2842,1.0312 0.3414,2.0186 0.329,2.601 -0.0129,0.582 -0.0826,1.1957 -0.1713,1.563 0.032,-0.6327 -0.0439,-1.525 -0.1896,-2.2214 -0.1456,-0.6962 -0.557,-1.8606 -0.8861,-2.3988 -0.3036,0.5129 -0.6774,1.5193 -0.8732,2.3924 -0.1968,0.8737 -0.2025,1.9303 -0.2025,2.2471 -0.052,-0.2673 -0.1832,-1.2196 -0.1458,-2.1775z"/>
  <path id="Shape_12" class="fil0" d="M7.7689 9.9831c-0.1709,-0.3227 -0.4367,-0.9357 -0.462,-1.8839 -0.0066,-0.9175 0.3607,-1.7026 0.468,-1.867 0.0956,0.1644 0.4116,0.8483 0.4493,1.7848 0.0258,0.9165 -0.2781,1.637 -0.4553,1.9661z"/>
  <polygon class="fil1" points="10.5833,10.8373 34.2053,10.8373 34.2053,13.3773 10.5833,13.3773 "/>
  <path class="fil2" d="M11.1648 11.3542l0.9591 0 0 0.2543 -0.6731 0 0 1.2608 -0.286 0 0 -1.5151zm2.2586 1.5151l-0.3111 0 -0.1236 -0.3443 -0.5659 0 -0.1167 0.3443 -0.3031 0 0.5514 -1.5151 0.3022 0 0.5668 1.5151zm-0.5263 -0.5994l-0.1951 -0.5623 -0.1912 0.5623 0.3863 0zm0.8796 -0.5023l-0.2782 -0.0691c0.06,-0.247 0.23,-0.3701 0.5109,-0.3701 0.1661,0 0.2914,0.0392 0.376,0.1171 0.0847,0.0783 0.1269,0.1701 0.1269,0.2755 0,0.0724 -0.0191,0.1376 -0.058,0.1958 -0.0385,0.0582 -0.0963,0.1094 -0.1737,0.1535 0.094,0.0346 0.1645,0.0832 0.2116,0.1464 0.0468,0.0631 0.0705,0.1407 0.0705,0.2332 0,0.1326 -0.0457,0.2402 -0.1367,0.3224 -0.091,0.0818 -0.2274,0.1228 -0.4091,0.1228 -0.1479,0 -0.2646,-0.0262 -0.3503,-0.0791 -0.0857,-0.0525 -0.1499,-0.1513 -0.1931,-0.2959l0.2617 -0.0921c0.027,0.091 0.0629,0.1499 0.1078,0.1767 0.0445,0.0268 0.0998,0.0402 0.1653,0.0402 0.0901,0 0.156,-0.0208 0.1972,-0.0624 0.0412,-0.0416 0.0616,-0.0892 0.0616,-0.1432 0,-0.0621 -0.0234,-0.1118 -0.0698,-0.1499 -0.0469,-0.0378 -0.117,-0.0568 -0.211,-0.0568l-0.0649 0 0 -0.2283 0.0329 0c0.0877,0 0.1546,-0.0211 0.2007,-0.0631 0.0465,-0.042 0.0696,-0.0977 0.0696,-0.1672 0,-0.0554 -0.0188,-0.102 -0.0564,-0.1397 -0.0376,-0.0378 -0.0916,-0.0568 -0.1618,-0.0568 -0.1196,0 -0.1964,0.0635 -0.2297,0.1901zm0.9531 0.3535c0,-0.1545 0.0214,-0.284 0.0645,-0.3888 0.0324,-0.0769 0.0762,-0.1464 0.1319,-0.2077 0.0556,-0.0611 0.1166,-0.1066 0.1829,-0.1362 0.0883,-0.0402 0.1898,-0.06 0.3052,-0.06 0.2086,0 0.3754,0.0692 0.5006,0.2078 0.1253,0.1383 0.1878,0.3309 0.1878,0.5775 0,0.2448 -0.0623,0.436 -0.1865,0.5743 -0.1243,0.1379 -0.2904,0.2071 -0.498,0.2071 -0.2106,0 -0.378,-0.0688 -0.5022,-0.2061 -0.1243,-0.1375 -0.1862,-0.327 -0.1862,-0.5679zm0.2943 -0.0102c0,0.1714 0.0372,0.3016 0.111,0.3901 0.0741,0.0886 0.1681,0.1327 0.2821,0.1327 0.1137,0 0.2073,-0.0438 0.2805,-0.132 0.0728,-0.0878 0.1095,-0.2194 0.1095,-0.3951 0,-0.1735 -0.0356,-0.303 -0.1066,-0.3887 -0.0711,-0.0854 -0.1657,-0.1281 -0.2834,-0.1281 -0.1179,0 -0.2128,0.0434 -0.285,0.1298 -0.0719,0.0865 -0.1081,0.2166 -0.1081,0.3913zm1.3018 0.7584l0 -1.5151 0.4585 0c0.1737,0 0.287,0.0077 0.3398,0.0229 0.081,0.0226 0.1493,0.072 0.2039,0.1482 0.0548,0.0762 0.0821,0.1746 0.0821,0.2949 0,0.0931 -0.0158,0.1714 -0.0474,0.2346 -0.0317,0.0635 -0.0716,0.1132 -0.1204,0.1495 -0.0484,0.036 -0.0979,0.06 -0.1479,0.0716 -0.0682,0.0145 -0.1671,0.0219 -0.2967,0.0219l-0.1862 0 0 0.5715 -0.2857 0zm0.2857 -1.2587l0 0.4297 0.1562 0c0.1128,0 0.1882,-0.0078 0.2261,-0.0236 0.038,-0.0159 0.0676,-0.0406 0.0893,-0.0745 0.0214,-0.0338 0.0324,-0.073 0.0324,-0.1178 0,-0.055 -0.0152,-0.1005 -0.0455,-0.1365 -0.03,-0.0356 -0.0686,-0.0582 -0.1148,-0.067 -0.0341,-0.0071 -0.1027,-0.0103 -0.2056,-0.0103l-0.1381 0zm2.136 1.2587l-0.3111 0 -0.1236 -0.3443 -0.5659 0 -0.1167 0.3443 -0.3031 0 0.5514 -1.5151 0.3022 0 0.5668 1.5151zm-0.5263 -0.5994l-0.1951 -0.5623 -0.1912 0.5623 0.3863 0zm1.5345 0.0424l0.2768 0.0938c-0.0425,0.1655 -0.1131,0.2882 -0.2119,0.3687 -0.0986,0.08 -0.2241,0.1203 -0.376,0.1203 -0.1879,0 -0.3425,-0.0688 -0.4634,-0.2061 -0.121,-0.1375 -0.1817,-0.3256 -0.1817,-0.5637 0,-0.2522 0.061,-0.448 0.1826,-0.5877 0.1216,-0.1393 0.2815,-0.2092 0.4798,-0.2092 0.1731,0 0.3138,0.0547 0.4219,0.1644 0.0646,0.0646 0.1127,0.1577 0.145,0.279l-0.283 0.0724c-0.0166,-0.0787 -0.0515,-0.1408 -0.1049,-0.1863 -0.053,-0.0455 -0.1176,-0.0681 -0.1934,-0.0681 -0.1049,0 -0.1902,0.0402 -0.2555,0.121 -0.0652,0.0804 -0.0978,0.211 -0.0978,0.3916 0,0.1915 0.032,0.3281 0.0965,0.4092 0.0643,0.0815 0.148,0.1221 0.2509,0.1221 0.0761,0 0.1413,-0.0258 0.1961,-0.0777 0.0546,-0.0515 0.0939,-0.1329 0.118,-0.2437zm0.5259 -0.9581l1.1258 0 0 1.5151 -0.2858 0 0 -1.2608 -0.5543 0 0 1.2608 -0.2857 0 0 -1.5151zm1.4179 1.5151l0 -1.5151 0.4584 0c0.1737,0 0.287,0.0077 0.3398,0.0229 0.081,0.0226 0.1493,0.072 0.2039,0.1482 0.0548,0.0762 0.0822,0.1746 0.0822,0.2949 0,0.0931 -0.0159,0.1714 -0.0475,0.2346 -0.0317,0.0635 -0.0716,0.1132 -0.1203,0.1495 -0.0485,0.036 -0.0979,0.06 -0.148,0.0716 -0.0682,0.0145 -0.1671,0.0219 -0.2966,0.0219l-0.1862 0 0 0.5715 -0.2857 0zm0.2857 -1.2587l0 0.4297 0.1562 0c0.1127,0 0.1881,-0.0078 0.2261,-0.0236 0.0379,-0.0159 0.0675,-0.0406 0.0893,-0.0745 0.0214,-0.0338 0.0323,-0.073 0.0323,-0.1178 0,-0.055 -0.0151,-0.1005 -0.0455,-0.1365 -0.03,-0.0356 -0.0686,-0.0582 -0.1147,-0.067 -0.0342,-0.0071 -0.1028,-0.0103 -0.2057,-0.0103l-0.138 0zm1.0332 1.2587l0 -1.5151 1.0494 0 0 0.2564 -0.7637 0 0 0.3359 0.7106 0 0 0.255 -0.7106 0 0 0.4124 0.7907 0 0 0.2554 -1.0764 0zm1.4327 -1.5151l0.9782 0 0 1.2608 0.1245 0 0 0.5848 -0.2376 0 0 -0.3305 -0.8912 0 0 0.3305 -0.2375 0 0 -0.5848 0.1199 0c0.0583,-0.1295 0.0972,-0.2798 0.1157,-0.4512 0.0188,-0.1711 0.028,-0.3877 0.028,-0.6495l0 -0.1601zm0.2722 0.2543c0,0.46 -0.0389,0.7959 -0.1166,1.0065l0.5378 0 0 -1.0065 -0.4212 0zm1.0227 1.2608l0 -1.5151 1.0493 0 0 0.2564 -0.7636 0 0 0.3359 0.7106 0 0 0.255 -0.7106 0 0 0.4124 0.7906 0 0 0.2554 -1.0763 0zm1.4201 -1.5151l0.9916 0 0 1.5151 -0.2856 0 0 -1.2587 -0.4259 0 0 0.647c0,0.1852 -0.0059,0.3147 -0.0174,0.388 -0.0115,0.0734 -0.0399,0.1306 -0.0844,0.1715 -0.0449,0.0409 -0.1147,0.0614 -0.2103,0.0614 -0.0333,0 -0.0943,-0.0032 -0.1822,-0.0103l0 -0.2367 0.0635 0.0011c0.06,0 0.1003,-0.0085 0.1207,-0.0258 0.0208,-0.0172 0.031,-0.0596 0.031,-0.1273l-0.001 -0.2603 0 -0.865zm1.2863 1.5151l0 -1.5151 1.0494 0 0 0.2564 -0.7637 0 0 0.3359 0.7106 0 0 0.255 -0.7106 0 0 0.4124 0.7907 0 0 0.2554 -1.0764 0zm1.3196 0l0 -1.5151 0.2861 0 0 0.5961 0.5599 0 0 -0.5961 0.2858 0 0 1.5151 -0.2858 0 0 -0.6625 -0.5599 0 0 0.6625 -0.2861 0zm1.4309 -1.5151l0.2677 0 0 1.0085 0.5734 -1.0085 0.2848 0 0 1.5151 -0.2673 0 0 -0.9892 -0.5728 0.9892 -0.2858 0 0 -1.5151zm1.418 1.5151l0 -1.5151 1.0493 0 0 0.2564 -0.7637 0 0 0.3359 0.7106 0 0 0.255 -0.7106 0 0 0.4124 0.7907 0 0 0.2554 -1.0763 0z"/>
  <path class="fil3" d="M10.7671 13.8497l1.4389 0 0 2.2519 -0.4146 0 0 -1.8708 -0.6178 0 0 0.9616c0,0.2753 -0.0087,0.4677 -0.0254,0.5768 -0.0168,0.109 -0.0579,0.194 -0.1225,0.2548 -0.065,0.0608 -0.1663,0.0912 -0.305,0.0912 -0.0483,0 -0.1367,-0.0047 -0.2644,-0.0152l0 -0.3518 0.0923 0.0016c0.087,0 0.1454,-0.0126 0.175,-0.0383 0.0301,-0.0257 0.045,-0.0886 0.045,-0.1893l-0.0015 -0.3869 0 -1.2856zm4.2629 0l0.3882 0 0 1.499 0.8321 -1.499 0.4132 0 0 2.2519 -0.3879 0 0 -1.4702 -0.831 1.4702 -0.4146 0 0 -2.2519zm4.4537 0l1.6335 0 0 2.2519 -0.4146 0 0 -1.8739 -0.8043 0 0 1.8739 -0.4146 0 0 -2.2519zm4.4484 2.2519l0 -2.2519 1.5226 0 0 0.3811 -1.108 0 0 0.4992 1.0309 0 0 0.3791 -1.0309 0 0 0.6129 1.1471 0 0 0.3796 -1.5617 0zm4.3117 -2.2519l0.4145 0 0 1.8739 0.8043 0 0 -1.8739 0.4146 0 0 1.8739 0.1711 0 0 0.7017 -0.3447 0 0 -0.3237 -1.4598 0 0 -2.2519zm4.4871 0l0.4145 0 0 0.9584c0.0929,-0.01 0.1555,-0.0362 0.188,-0.0781 0.0325,-0.042 0.0832,-0.1589 0.1511,-0.3503 0.0861,-0.2438 0.1726,-0.3953 0.2592,-0.4545 0.086,-0.0598 0.2247,-0.0892 0.416,-0.0892 0.0095,0 0.0296,-0.0005 0.0602,-0.0015l0 0.336 -0.0588 -0.0015c-0.0846,0 -0.1468,0.0115 -0.186,0.0346 -0.0393,0.023 -0.0713,0.0582 -0.0952,0.1054 -0.0243,0.0471 -0.0602,0.1436 -0.108,0.2904 -0.0254,0.0776 -0.0527,0.1426 -0.0818,0.1951 -0.0297,0.0519 -0.0818,0.1012 -0.1564,0.1473 0.0923,0.0288 0.1689,0.0865 0.229,0.1736 0.0603,0.087 0.1264,0.2102 0.198,0.3686l0.2803 0.6176 -0.4873 0 -0.2453 -0.582c-0.0038,-0.0084 -0.0115,-0.0241 -0.0239,-0.0477 -0.0043,-0.0084 -0.022,-0.0435 -0.0516,-0.1059 -0.0531,-0.1106 -0.0972,-0.1799 -0.1311,-0.2076 -0.0339,-0.0278 -0.0861,-0.042 -0.1564,-0.043l0 0.9862 -0.4145 0 0 -2.2519z"/>
 </g>
</svg>
